<svg width="167" height="30" viewBox="0 0 167 30" fill="none" xmlns="http://www.w3.org/2000/svg">
<path d="M17.2873 0C17.2873 4.6866 13.8417 8.57311 9.33105 9.29416V9.41413H19.1817C24.4128 9.41413 28.6535 5.19927 28.6535 0H17.2874L17.2873 0Z" fill="white"/>
<path d="M29.3131 20.2165C25.2297 17.8732 23.566 12.964 25.1931 8.72094L25.0885 8.66089L20.1632 17.14C17.5476 21.6427 19.0998 27.4004 23.63 29.9999L29.3131 20.2164V20.2165Z" fill="white"/>
<path d="M5.68309 20.459C9.76657 18.1157 14.8759 19.1382 17.7594 22.6604L17.8639 22.6003L12.9386 14.1213C10.323 9.61856 4.53024 8.07575 0 10.6755L5.68309 20.459Z" fill="white"/>
<path d="M38.1251 4.70703H40.8094L45.1637 15.4969C46.148 17.9277 47.311 20.7438 48.1163 22.967H48.325C49.1899 20.7141 50.2935 17.9276 51.2776 15.4969L55.7214 4.70703H58.2863L49.5776 25.457H46.8337L38.125 4.70703H38.1251ZM59.5986 4.70703H62.0144V7.34525H59.5986V4.70703ZM59.5986 9.33131H62.0144V25.457H59.5986V9.33131ZM64.9669 9.33131H67.3528V13.6592H67.3826C68.0685 10.5467 70.2457 8.97553 73.1984 8.97553C77.6123 8.97553 79.1035 11.9103 79.1035 15.3786V25.4572H76.6578V15.8824C76.6578 13.4814 75.614 11.1693 72.3333 11.1693C69.2315 11.1693 67.3527 12.9181 67.3527 15.8824V25.4572H64.9668V9.33131H64.9669ZM88.0509 8.97553C91.8982 9.00522 93.8071 11.1395 94.4334 14.3114H94.4632V4.70703H96.8491V25.457H94.4632V20.5364H94.4334C93.7475 23.7081 91.8089 25.8424 88.1703 25.8424C83.6072 25.8424 81.1914 22.5817 81.1914 17.4534C81.1914 12.2065 83.7862 8.94584 88.0509 8.97553ZM88.8861 23.6192C92.3158 23.6192 94.4632 21.4552 94.4632 17.5425V17.3349C94.4632 13.5702 92.3158 11.1395 88.8861 11.1395C85.3966 11.1395 83.6071 13.4516 83.6071 17.4831C83.6071 21.396 85.3071 23.6192 88.8861 23.6192ZM99.8017 9.33131H102.217V14.0742H102.247C102.903 10.4874 105.14 8.97553 108.093 8.97553C110.926 8.97553 112.775 10.6059 113.074 14.0742H113.103C113.759 10.4874 115.996 8.97553 118.949 8.97553C122.14 8.97553 124.079 10.932 124.079 15.1413V25.457H121.693V15.3786C121.693 12.9775 120.858 11.1693 117.875 11.1693C115.549 11.1693 113.222 12.5329 113.193 15.9713L113.133 25.457H110.747V15.3786C110.747 12.9775 109.912 11.1693 107.019 11.1693C104.633 11.1693 102.217 12.6217 102.217 16.1789V25.457H99.8016V9.33131H99.8017ZM132.042 16.5641H137.649V15.4969C137.649 12.6809 136.635 11.1098 133.682 11.1098C131.058 11.1098 129.715 12.3252 129.238 15.2598L126.912 14.904C127.509 11.0207 129.775 9.00509 133.742 9.00509C138.096 9.00509 140.005 11.3172 140.005 15.4375V25.4569H137.649V21.2772H137.619C136.873 24.3601 134.577 25.8127 131.714 25.8127C128.403 25.8127 126.405 24.3304 126.405 21.2772C126.405 18.639 128.224 16.564 132.042 16.564L132.042 16.5641ZM132.221 23.797C135.621 23.797 137.649 21.9592 137.649 19.558V18.5206H132.28C130.044 18.5206 128.791 19.4098 128.791 21.0699C128.791 22.4335 129.686 23.797 132.221 23.797ZM142.957 9.33131H145.343V14.0445H145.433C145.999 10.7541 147.67 9.33131 150.294 9.33131H151.428V11.9695H150.085C146.894 11.9695 145.344 13.2739 145.344 16.6235V25.457H142.958V9.33131H142.957ZM153.101 4.70703H155.546V16.4457H155.695L162.913 9.33144H165.865V9.42038L157.664 17.246L166.73 25.3979L166.7 25.4572H163.539L155.725 18.3725H155.546V25.4572H153.101V4.70703H153.101Z" fill="white"/>
</svg>
