<svg width="148" height="152" viewBox="0 0 148 152" fill="none" xmlns="http://www.w3.org/2000/svg">
<path d="M87.3526 0C87.3526 23.8957 69.877 43.7119 47 47.3883V48H96.961C123.492 48 145 26.5096 145 0H87.3533L87.3526 0Z" fill="#13232D"/>
<path d="M148 102.485C127.231 90.6249 118.769 65.7788 127.045 44.3039L126.513 44L101.462 86.9139C88.1591 109.703 96.054 138.843 119.095 152L148 102.484V102.485Z" fill="#13232D"/>
<path d="M28.6319 103.867C49.2048 92.0155 74.9458 97.1868 89.4732 115L90 114.696L65.1858 71.8138C52.0081 49.0416 22.8237 41.239 0 54.3868L28.6319 103.867Z" fill="#13232D"/>
</svg>
