<svg width="79" height="12" viewBox="0 0 79 12" fill="none" xmlns="http://www.w3.org/2000/svg">
<path d="M8.07256e-05 0H1.64896L4.32377 6.12617C4.92836 7.50629 5.64282 9.1052 6.13747 10.3675H6.26569C6.79696 9.08834 7.47488 7.50622 8.07939 6.12617L10.8092 0H12.3847L7.03511 11.7812H5.34962L0 0H8.07256e-05ZM13.1909 0H14.6748V1.4979H13.1909V0ZM13.1909 2.62552H14.6748V11.7812H13.1909V2.62552ZM16.4885 2.62552H17.9541V5.08277H17.9724C18.3937 3.31558 19.7312 2.42353 21.5449 2.42353C24.2564 2.42353 25.1724 4.08979 25.1724 6.05897V11.7813H23.67V6.34503C23.67 4.98184 23.0288 3.66908 21.0136 3.66908C19.1082 3.66908 17.9541 4.66199 17.9541 6.34503V11.7813H16.4885V2.62552H16.4885ZM30.6686 2.42353C33.032 2.44038 34.2045 3.65215 34.5892 5.45305H34.6076V0H36.0732V11.7812H34.6076V8.98741H34.5892C34.1679 10.7882 32.9771 12 30.7419 12C27.9389 12 26.455 10.1487 26.455 7.23701C26.455 4.25799 28.0489 2.40667 30.6686 2.42353ZM31.1816 10.7377C33.2885 10.7377 34.6076 9.50912 34.6076 7.28759V7.16973C34.6076 5.03227 33.2885 3.65215 31.1816 3.65215C29.0381 3.65215 27.9388 4.96491 27.9388 7.25387C27.9388 9.47547 28.9831 10.7377 31.1816 10.7377ZM37.8869 2.62552H39.3709V5.31841H39.3892C39.7922 3.28194 41.1663 2.42353 42.9799 2.42353C44.7204 2.42353 45.8563 3.34923 46.0396 5.31841H46.0578C46.4609 3.28194 47.8349 2.42353 49.6486 2.42353C51.6089 2.42353 52.7998 3.53437 52.7998 5.92425V11.7812H51.3341V6.05897C51.3341 4.69571 50.8212 3.66908 48.989 3.66908C47.5601 3.66908 46.1311 4.44328 46.1128 6.39553L46.0761 11.7812H44.6105V6.05897C44.6105 4.69571 44.0975 3.66908 42.3204 3.66908C40.8548 3.66908 39.3708 4.49371 39.3708 6.51339V11.7812H37.8868V2.62552H37.8869ZM57.6915 6.73209H61.1357V6.12617C61.1357 4.52735 60.5128 3.63529 58.6991 3.63529C57.0869 3.63529 56.2624 4.32535 55.9693 5.99153L54.5403 5.78953C54.9067 3.58471 56.299 2.44031 58.7357 2.44031C61.4105 2.44031 62.583 3.75307 62.583 6.09246V11.7811H61.1357V9.40804H61.1174C60.6594 11.1584 59.2487 11.9831 57.49 11.9831C55.4563 11.9831 54.229 11.1416 54.229 9.40804C54.229 7.91014 55.3465 6.73202 57.6916 6.73202L57.6915 6.73209ZM57.8013 10.8387C59.8899 10.8387 61.1357 9.79525 61.1357 8.43192V7.84293H57.838C56.4639 7.84293 55.6945 8.34778 55.6945 9.29033C55.6945 10.0645 56.2441 10.8387 57.8013 10.8387ZM64.3967 2.62552H65.8624V5.30155H65.9173C66.2654 3.43337 67.2914 2.62552 68.9036 2.62552H69.5997V4.12343H68.7753C66.8151 4.12343 65.8625 4.86399 65.8625 6.76581V11.7812H64.3968V2.62552H64.3967ZM70.6275 0H72.1298V6.66489H72.2214L76.6549 2.6256H78.4686V2.6761L73.4305 7.11923L79 11.7477L78.9817 11.7813H77.0397L72.2397 7.75887H72.1299V11.7813H70.6276V0H70.6275Z" fill="#13232D"/>
</svg>
