<svg width="105" height="108" viewBox="0 0 105 108" fill="none" xmlns="http://www.w3.org/2000/svg">
<path d="M61.9733 0C61.9733 16.953 49.575 31.0118 33.3447 33.6201V34.0541H68.79C87.6128 34.0541 102.872 18.8075 102.872 0H61.9738L61.9733 0Z" fill="white"/>
<path d="M105 72.7088C90.265 64.2947 84.2619 46.6675 90.133 31.4319L89.7557 31.2163L71.9832 61.662C62.5451 77.8297 68.1462 98.5037 84.493 107.838L105 72.7083V72.7088Z" fill="white"/>
<path d="M20.3132 73.6893C34.9088 65.2814 53.171 68.9502 63.4776 81.588L63.8513 81.3725L46.2467 50.9491C36.8977 34.7932 16.1925 29.2575 0 38.5854L20.3132 73.6893Z" fill="white"/>
</svg>
